<svg xmlns="http://www.w3.org/2000/svg" width="1024" height="1024" viewBox="0 0 512 512"><defs><radialGradient id="bg"><stop stop-color="#292c2d"/><stop offset="1" stop-color="#0c1012"/></radialGradient><linearGradient id="plastic"><stop stop-color="#343f40"/><stop offset=".48" stop-color="#747d77"/><stop offset="1" stop-color="#253234"/></linearGradient><filter id="blur"><feGaussianBlur stdDeviation="15"/></filter><filter id="grain"><feTurbulence type="fractalNoise" baseFrequency=".55" numOctaves="3" seed="50"/><feColorMatrix type="saturate" values="0"/><feComponentTransfer><feFuncA type="linear" slope=".17"/></feComponentTransfer></filter></defs><rect width="512" height="512" fill="url(#bg)"/><ellipse cx="257" cy="430" rx="180" ry="30" fill="#000" opacity=".64" filter="url(#blur)"/><desc>ASHFALL inventory art cassette_greenhouse_tapes_1; fictional cassette and sleeve with unreadable markings.</desc><g transform="rotate(-7 252 244)"><path d="M141 103h229v242H141z" fill="#5e7156" stroke="#343c3a" stroke-width="10"/><path d="M158 119h195v108H158z" fill="#5e7156" stroke="#a9ba89" stroke-width="4"/><path d="M163 249h180m-180 20h160m-160 21h142" stroke="#a9ba89" stroke-width="9" stroke-linecap="round" opacity=".7"/><path d="M177 158q32-43 63-5-31 43-63 5Zm32 7q-1 23-1 43" fill="#b7c99f" stroke="#d3ddbb" stroke-width="5"/><path d="M176 189q25-12 44 5" fill="none" stroke="#d0b36b" stroke-width="6"/><path d="M141 103h229v242H141z" filter="url(#grain)" opacity=".43"/></g><g transform="rotate(8 257 310)"><path d="M112 233h290v161H112z" fill="url(#plastic)" stroke="#273437" stroke-width="10"/><path d="M134 250h244v58H134z" fill="#a9ba89" stroke="#6a716b" stroke-width="5"/><path d="M153 266h199" stroke="#d0b36b" stroke-width="9" opacity=".9"/><path d="M166 287h174" stroke="#5b6765" stroke-width="6" stroke-dasharray="15 9"/><circle cx="181" cy="347" r="31" fill="#404e4f" stroke="#b2b9ac" stroke-width="7"/><circle cx="333" cy="347" r="31" fill="#404e4f" stroke="#b2b9ac" stroke-width="7"/><circle cx="181" cy="347" r="12" fill="#b4b5a5"/><circle cx="333" cy="347" r="12" fill="#b4b5a5"/><path d="M212 340h90v15h-90z" fill="#273435" stroke="#858f88" stroke-width="4"/><path d="M146 381h223" stroke="#d0b36b" stroke-width="6" opacity=".8"/><circle cx="129" cy="249" r="6" fill="#d5ccaa"/><circle cx="385" cy="249" r="6" fill="#d5ccaa"/><path d="M112 233h290v161H112z" filter="url(#grain)" opacity=".3"/></g><rect width="512" height="512" filter="url(#grain)" opacity=".11"/></svg>
