<svg xmlns="http://www.w3.org/2000/svg" width="1024" height="1024" viewBox="0 0 512 512"><defs>
 <radialGradient id="bg"><stop stop-color="#303638"/><stop offset="1" stop-color="#0d1214"/></radialGradient>
 <linearGradient id="metal" x2="1" y2=".2"><stop stop-color="#485a5e"/><stop offset=".35" stop-color="#ced8cb"/><stop offset=".72" stop-color="#8eaaa6"/><stop offset="1" stop-color="#3e5457"/></linearGradient>
 <linearGradient id="wax" x2="1" y2="0"><stop stop-color="#4d3e33"/><stop offset=".45" stop-color="#9e8061"/><stop offset="1" stop-color="#493b31"/></linearGradient>
 <linearGradient id="can" x2="1" y2=".2"><stop stop-color="#263b40"/><stop offset=".52" stop-color="#77918c"/><stop offset="1" stop-color="#293d43"/></linearGradient>
 <filter id="blur"><feGaussianBlur stdDeviation="15"/></filter>
 <filter id="grain"><feTurbulence type="fractalNoise" baseFrequency=".55" numOctaves="3" seed="45"/><feColorMatrix type="saturate" values="0"/><feComponentTransfer><feFuncA type="linear" slope=".16"/></feComponentTransfer></filter>
 </defs>
 <rect width="512" height="512" fill="url(#bg)"/>
 <ellipse cx="256" cy="429" rx="177" ry="30" fill="#000" opacity=".62" filter="url(#blur)"/>
 <desc>ASHFALL inventory art item_cold_count_provenance_seal; fictional handmade prop illustration.</desc>

 <path d="M142 172q70-52 152-32l89 86-34 138q-92 32-180-21z" fill="#b6aa8d" stroke="#544f45" stroke-width="11"/>
 <path d="M164 199q68-36 122-21l57 61-20 98q-78 24-134-15z" fill="#d2c5a2" stroke="#80765b" stroke-width="7"/>
 <path d="M191 213h83m-82 27h111m-110 27h97" stroke="#7c7f71" stroke-width="7"/>
 <path d="M299 159q31-25 58-10l55 47-22 21-57-43" fill="none" stroke="#928166" stroke-width="12"/>
 <circle cx="268" cy="304" r="68" fill="#b5925d" stroke="#5c5547" stroke-width="11"/>
 <circle cx="268" cy="304" r="49" fill="none" stroke="#e4c28a" stroke-width="8"/>
 <path d="M228 315q39-57 81-13m-67 19 24 20 32-44" fill="none" stroke="#5c5946" stroke-width="9" stroke-linecap="round"/>
 <circle cx="268" cy="304" r="61" fill="none" stroke="#715d46" stroke-width="4" stroke-dasharray="6 6"/>

 <rect width="512" height="512" filter="url(#grain)" opacity=".10"/>
 </svg>
