<svg xmlns="http://www.w3.org/2000/svg" width="1024" height="1024" viewBox="0 0 512 512"><defs>
 <radialGradient id="bg"><stop stop-color="#303638"/><stop offset="1" stop-color="#0d1214"/></radialGradient>
 <linearGradient id="metal" x2="1" y2=".2"><stop stop-color="#485a5e"/><stop offset=".35" stop-color="#ced8cb"/><stop offset=".72" stop-color="#8eaaa6"/><stop offset="1" stop-color="#3e5457"/></linearGradient>
 <linearGradient id="wax" x2="1" y2="0"><stop stop-color="#4d3e33"/><stop offset=".45" stop-color="#9e8061"/><stop offset="1" stop-color="#493b31"/></linearGradient>
 <linearGradient id="can" x2="1" y2=".2"><stop stop-color="#263b40"/><stop offset=".52" stop-color="#77918c"/><stop offset="1" stop-color="#293d43"/></linearGradient>
 <filter id="blur"><feGaussianBlur stdDeviation="15"/></filter>
 <filter id="grain"><feTurbulence type="fractalNoise" baseFrequency=".55" numOctaves="3" seed="45"/><feColorMatrix type="saturate" values="0"/><feComponentTransfer><feFuncA type="linear" slope=".16"/></feComponentTransfer></filter>
 </defs>
 <rect width="512" height="512" fill="url(#bg)"/>
 <ellipse cx="256" cy="429" rx="177" ry="30" fill="#000" opacity=".62" filter="url(#blur)"/>
 <desc>ASHFALL inventory art item_water_allocation_writ; fictional handmade prop illustration.</desc>

 <g transform="rotate(-11 256 258)">
  <path d="M176 145q-26-12-35 14v233q21 18 45 3l183-5q22-24 5-42V136q-14-19-35 2z" fill="#d4c5a2" stroke="#70675a" stroke-width="11"/>
  <path d="M175 145q16 4 19 26v193q-1 26-19 31m169-258q-15 19-12 45v169q2 21 26 39" fill="none" stroke="#a19172" stroke-width="9"/>
  <path d="M211 184h111m-111 29h102m-102 29h112m-112 29h88" stroke="#647b7e" stroke-width="7"/>
  <path d="M236 320q-19-25 1-44 20 19 4 44m25-18q22-21 3-45-21 17-3 45" fill="#5d929e" stroke="#3f6e7c" stroke-width="6"/>
  <circle cx="295" cy="335" r="32" fill="#4b8493" stroke="#d2c49d" stroke-width="7"/>
  <path d="M296 315q-25 26-8 38 24 13 25-11 0-13-17-27z" fill="#b9d4cf"/>
 </g>
 <rect width="512" height="512" filter="url(#grain)" opacity=".10"/>
 </svg>
