<svg xmlns="http://www.w3.org/2000/svg" width="1024" height="1024" viewBox="0 0 512 512"><defs><radialGradient id="bg"><stop stop-color="#292c2d"/><stop offset="1" stop-color="#0c1012"/></radialGradient><linearGradient id="plastic"><stop stop-color="#313e40"/><stop offset=".48" stop-color="#87908a"/><stop offset="1" stop-color="#243134"/></linearGradient><filter id="blur"><feGaussianBlur stdDeviation="15"/></filter><filter id="grain"><feTurbulence type="fractalNoise" baseFrequency=".55" numOctaves="3" seed="52"/><feColorMatrix type="saturate" values="0"/><feComponentTransfer><feFuncA type="linear" slope=".17"/></feComponentTransfer></filter></defs><rect width="512" height="512" fill="url(#bg)"/><ellipse cx="257" cy="430" rx="180" ry="30" fill="#000" opacity=".64" filter="url(#blur)"/><desc>ASHFALL inventory art cassette_station_14_3; fictional cassette and sleeve with unreadable markings.</desc><g transform="rotate(8 252 244)"><path d="M141 103h229v242H141z" fill="#4c6a71" stroke="#303a3b" stroke-width="10"/><path d="M158 119h195v108H158z" fill="#4c6a71" stroke="#b9caca" stroke-width="4"/><path d="M163 248h180m-180 21h160m-160 21h142" stroke="#b9caca" stroke-width="9" stroke-linecap="round" opacity=".67"/><path d="M178 129h56m-56 21h55m-55 20h57m-55 22h48" stroke="#d5dad0" stroke-width="7"/><circle cx="242" cy="130" r="5" fill="#d6b683"/><circle cx="242" cy="151" r="5" fill="#d6b683"/><circle cx="242" cy="171" r="5" fill="#d6b683"/><path d="M177 208q30-16 60 0" stroke="#cbb38d" stroke-width="6" fill="none"/><path d="M141 103h229v242H141z" filter="url(#grain)" opacity=".43"/></g><g transform="rotate(-6 257 310)"><path d="M112 233h290v161H112z" fill="url(#plastic)" stroke="#273437" stroke-width="10"/><path d="M118 238h278v145H118z" fill="#536872" opacity=".27"/><path d="M134 250h244v58H134z" fill="#b9caca" stroke="#6a716b" stroke-width="5"/><path d="M153 266h199" stroke="#d0b28a" stroke-width="9" opacity=".9"/><path d="M166 287h174" stroke="#5b6765" stroke-width="6" stroke-dasharray="15 9"/><circle cx="181" cy="347" r="31" fill="#404e4f" stroke="#b2b9ac" stroke-width="7"/><circle cx="333" cy="347" r="31" fill="#404e4f" stroke="#b2b9ac" stroke-width="7"/><circle cx="181" cy="347" r="12" fill="#b4b5a5"/><circle cx="333" cy="347" r="12" fill="#b4b5a5"/><path d="M212 340h90v15h-90z" fill="#273435" stroke="#858f88" stroke-width="4"/><path d="M146 381h223" stroke="#d0b28a" stroke-width="6" opacity=".8"/><circle cx="129" cy="249" r="6" fill="#d5ccaa"/><circle cx="385" cy="249" r="6" fill="#d5ccaa"/><path d="M112 233h290v161H112z" filter="url(#grain)" opacity=".3"/></g><rect width="512" height="512" filter="url(#grain)" opacity=".11"/></svg>
