<svg xmlns="http://www.w3.org/2000/svg" width="1024" height="1024" viewBox="0 0 512 512"><desc>ASHFALL inventory art item_collectible_pre_war_novel; no readable text.</desc><defs><radialGradient id="bg"><stop stop-color="#25282a"/><stop offset="1" stop-color="#0d1012"/></radialGradient><linearGradient id="mat" x1="0" y1="0" x2="1" y2="1"><stop stop-color="#94a07a"/><stop offset=".53" stop-color="#626b53"/><stop offset="1" stop-color="#303a30"/></linearGradient><filter id="blur"><feGaussianBlur stdDeviation="16"/></filter><filter id="grain"><feTurbulence type="fractalNoise" baseFrequency=".55" numOctaves="3" seed="24"/><feColorMatrix type="saturate" values="0"/><feComponentTransfer><feFuncA type="linear" slope=".18"/></feComponentTransfer></filter></defs><rect width="512" height="512" fill="url(#bg)"/><ellipse cx="264" cy="430" rx="178" ry="30" fill="#000" opacity=".69" filter="url(#blur)"/><g transform="rotate(-7 256 256)"><path d="M130 100L356 82 413 351 188 393 126 121Z" fill="#303a30" stroke="#111719" stroke-width="7"/><path d="M177 371L406 341l12 16-228 39Z" fill="#bcb4a5" stroke="#383a36" stroke-width="4"/><path d="M127 105L355 82l52 260-229 37Z" fill="url(#mat)" stroke="#1c2426" stroke-width="8"/><path d="M126 106l51 270 25-5-50-269Z" fill="#303a30" stroke="#efb76a" stroke-width="3"/><path d="M171 113L350 94m-153 271 202-31" stroke="#eee9d9" opacity=".2" stroke-width="4"/><circle cx="292" cy="175" r="37" fill="#e8b36b"/><path d="M193 305l71-98 35 49 28-39 60 92Z" fill="#273e41"/><path d="M193 306q73-50 196 2" fill="#5f816b" stroke="#cfad75" stroke-width="5"/><path d="M128 107L355 82l52 260-229 37Z" filter="url(#grain)" opacity=".55"/><path d="M130 104l20-3 5 22m198-37-16 2 4 21m-160 266 21-3" fill="none" stroke="#efb76a" stroke-width="5" opacity=".8"/></g></svg>
