<svg xmlns="http://www.w3.org/2000/svg" width="1024" height="1024" viewBox="0 0 512 512"><defs><radialGradient id="bg"><stop stop-color="#292c2d"/><stop offset="1" stop-color="#0c1012"/></radialGradient><linearGradient id="steel"><stop stop-color="#485457"/><stop offset=".48" stop-color="#a7aea7"/><stop offset="1" stop-color="#364347"/></linearGradient><linearGradient id="cloth"><stop stop-color="#d8c9aa"/><stop offset=".52" stop-color="#9f937b"/><stop offset="1" stop-color="#554e45"/></linearGradient><filter id="blur"><feGaussianBlur stdDeviation="15"/></filter><filter id="grain"><feTurbulence type="fractalNoise" baseFrequency=".57" numOctaves="3" seed="39"/><feColorMatrix type="saturate" values="0"/><feComponentTransfer><feFuncA type="linear" slope=".16"/></feComponentTransfer></filter></defs><rect width="512" height="512" fill="url(#bg)"/><ellipse cx="257" cy="428" rx="177" ry="28" fill="#000" opacity=".64" filter="url(#blur)"/><desc>ASHFALL inventory art item_slave_collar; fictional object, no readable text.</desc><g transform="rotate(9 256 258)"><ellipse cx="260" cy="253" rx="145" ry="102" fill="#1a2325" stroke="#87918b" stroke-width="44"/><ellipse cx="260" cy="253" rx="145" ry="102" fill="none" stroke="#2b383a" stroke-width="10"/><path d="M133 299q123 96 252-7" fill="none" stroke="#66716f" stroke-width="32"/><path d="M137 306q121 89 247-8" fill="none" stroke="#b5b9aa" stroke-width="8" opacity=".5"/><path d="M246 335v53h46v-54" fill="#697674" stroke="#293536" stroke-width="8"/><rect x="238" y="376" width="63" height="36" rx="6" fill="#8d9187" stroke="#344041" stroke-width="8"/><circle cx="269" cy="390" r="6" fill="#353b3b"/><circle cx="157" cy="217" r="8" fill="#d5c7a8"/><circle cx="206" cy="176" r="8" fill="#d5c7a8"/><circle cx="314" cy="176" r="8" fill="#d5c7a8"/><circle cx="365" cy="218" r="8" fill="#d5c7a8"/><path d="M119 190q145-93 278-4" fill="none" stroke="#c4c4b1" stroke-width="8" opacity=".35"/></g><rect width="512" height="512" filter="url(#grain)" opacity=".12"/></svg>
