<svg xmlns="http://www.w3.org/2000/svg" width="1024" height="1024" viewBox="0 0 512 512"><desc>ASHFALL inventory art item_collectible_topo_map; no readable text.</desc><defs><radialGradient id="bg"><stop stop-color="#25282a"/><stop offset="1" stop-color="#0d1012"/></radialGradient><linearGradient id="mat" x1="0" y1="0" x2="1" y2="1"><stop stop-color="#d0d9cc"/><stop offset=".52" stop-color="#9caba7"/><stop offset="1" stop-color="#5b736f"/></linearGradient><filter id="blur"><feGaussianBlur stdDeviation="16"/></filter><filter id="grain"><feTurbulence type="fractalNoise" baseFrequency=".58" numOctaves="3" seed="42"/><feColorMatrix type="saturate" values="0"/><feComponentTransfer><feFuncA type="linear" slope=".2"/></feComponentTransfer></filter></defs><rect width="512" height="512" fill="url(#bg)"/><ellipse cx="263" cy="428" rx="179" ry="30" fill="#000" opacity=".68" filter="url(#blur)"/><g transform="rotate(5 256 256)"><path d="M119 108l118-20 140 25 19 264-128 31-131-12Z" fill="url(#mat)" stroke="#635d4e" stroke-width="7"/><path d="M236 89l32 317m107-292-104 293" stroke="#7d7561" stroke-width="5" opacity=".5"/><path d="M145 137l212-15 18 239-210 23Z" fill="#d0d9cc" opacity=".25"/><g fill="none" stroke="#698d83" stroke-width="4"><path d="M160 172q67-68 165-8t39 123-176 9"/><path d="M178 182q66-47 124-9t27 92-126 24"/><path d="M196 196q36-31 83-4t12 65-74 18"/><path d="M223 208q27-20 49 0t-3 38-42 13"/></g><path d="M165 315q86-20 155-118" fill="none" stroke="#b75e55" stroke-width="8" stroke-dasharray="11 8"/><path d="M119 108l118-20 140 25 19 264-128 31-131-12Z" filter="url(#grain)" opacity=".51"/><path d="M136 394l130 12 129-28" stroke="#d4cbb4" stroke-width="4" opacity=".5"/></g></svg>
