<svg xmlns="http://www.w3.org/2000/svg" width="1024" height="1024" viewBox="0 0 512 512"><desc>ASHFALL inventory art item_collectible_prayer_book; no readable text.</desc><defs><radialGradient id="bg"><stop stop-color="#25282a"/><stop offset="1" stop-color="#0d1012"/></radialGradient><linearGradient id="mat" x1="0" y1="0" x2="1" y2="1"><stop stop-color="#75816a"/><stop offset=".52" stop-color="#4d5547"/><stop offset="1" stop-color="#282f2a"/></linearGradient><filter id="blur"><feGaussianBlur stdDeviation="16"/></filter><filter id="grain"><feTurbulence type="fractalNoise" baseFrequency=".58" numOctaves="3" seed="37"/><feColorMatrix type="saturate" values="0"/><feComponentTransfer><feFuncA type="linear" slope=".2"/></feComponentTransfer></filter></defs><rect width="512" height="512" fill="url(#bg)"/><ellipse cx="263" cy="428" rx="179" ry="30" fill="#000" opacity=".68" filter="url(#blur)"/><g transform="rotate(-8 256 256)"><path d="M137 95L350 82 409 345 194 389 129 118Z" fill="#282f2a" stroke="#171c1c" stroke-width="8"/><path d="M181 369L401 336l11 17-214 39Z" fill="#d6cab1" stroke="#514c41" stroke-width="4"/><path d="M133 99L351 82l52 257-222 37Z" fill="url(#mat)" stroke="#262b27" stroke-width="7"/><path d="M133 99l49 276 24-4-49-270Z" fill="#282f2a" stroke="#bca878" stroke-width="4"/><path d="M273 121v184" stroke="#bca878" stroke-width="12" opacity=".7"/><path d="M219 189q27-42 53-9 26-33 59 9m-109 49q49 30 107 0" fill="none" stroke="#d3c5a7" stroke-width="8"/><circle cx="274" cy="216" r="22" fill="none" stroke="#bca878" stroke-width="6"/><path d="M183 364l-6 46 25-30" fill="#a94b44"/><path d="M133 99L351 82l52 257-222 37Z" filter="url(#grain)" opacity=".5"/></g></svg>
