<svg xmlns="http://www.w3.org/2000/svg" width="1024" height="1024" viewBox="0 0 512 512"><defs><radialGradient id="bg"><stop stop-color="#282b2c"/><stop offset="1" stop-color="#0d1012"/></radialGradient><linearGradient id="paper" x1="0" y1="0" x2="1" y2="1"><stop stop-color="#e9e2c6"/><stop offset=".55" stop-color="#c5b990"/><stop offset="1" stop-color="#776e55"/></linearGradient><filter id="blur"><feGaussianBlur stdDeviation="15"/></filter><filter id="grain"><feTurbulence type="fractalNoise" baseFrequency=".55" numOctaves="3" seed="58"/><feColorMatrix type="saturate" values="0"/><feComponentTransfer><feFuncA type="linear" slope=".18"/></feComponentTransfer></filter></defs><rect width="512" height="512" fill="url(#bg)"/><ellipse cx="257" cy="429" rx="178" ry="28" fill="#000" opacity=".62" filter="url(#blur)"/><desc>ASHFALL inventory art item_document_handwritten_warning; fictional marks with no readable text.</desc><path d="M155 112q0-53 41-54t70 50m-64-54q59-7 110 54" stroke="#91836b" stroke-width="7" fill="none"/><g transform="rotate(5 256 262)"><path d="M104 121l295-17 16 301-318-4Z" fill="#a08b68" stroke="#594938" stroke-width="11"/><path d="M123 143l254-13 13 246-262 7Z" fill="#b4a078"/><circle cx="155" cy="155" r="12" fill="#3b362f" stroke="#dac79e" stroke-width="4"/><path d="M259 169l-77 126h154Z" fill="#b89150" stroke="#3f3931" stroke-width="13"/><path d="M258 215v38m0 18v7" stroke="#2b3030" stroke-width="12" stroke-linecap="round"/><path d="M157 320h213m-186 26h153" stroke="#363736" stroke-width="12" stroke-linecap="round" opacity=".82"/><path d="M104 121l295-17 16 301-318-4Z" filter="url(#grain)" opacity=".53"/></g><rect width="512" height="512" filter="url(#grain)" opacity=".13"/></svg>
