<svg xmlns="http://www.w3.org/2000/svg" width="1024" height="1024" viewBox="0 0 512 512"><defs><radialGradient id="bg"><stop stop-color="#282b2c"/><stop offset="1" stop-color="#0d1012"/></radialGradient><linearGradient id="paper" x1="0" y1="0" x2="1" y2="1"><stop stop-color="#e9e2c6"/><stop offset=".55" stop-color="#c5b990"/><stop offset="1" stop-color="#776e55"/></linearGradient><filter id="blur"><feGaussianBlur stdDeviation="15"/></filter><filter id="grain"><feTurbulence type="fractalNoise" baseFrequency=".55" numOctaves="3" seed="58"/><feColorMatrix type="saturate" values="0"/><feComponentTransfer><feFuncA type="linear" slope=".18"/></feComponentTransfer></filter></defs><rect width="512" height="512" fill="url(#bg)"/><ellipse cx="257" cy="429" rx="178" ry="28" fill="#000" opacity=".62" filter="url(#blur)"/><desc>ASHFALL inventory art item_document_ration_theft_ledger; fictional marks with no readable text.</desc><g transform="rotate(-8 255 257)"><path d="M127 118h267v292H127z" fill="#35443a" stroke="#202b25" stroke-width="13"/><path d="M145 134h228v258H145z" fill="#ddd3ae" stroke="#756e5e" stroke-width="5"/><path d="M250 135v257" stroke="#706754" stroke-width="8"/><path d="M166 176h60m-60 25h59m-59 25h53m-53 26h60m-60 26h54m-54 27h60m-60 25h55m49-154h77m-77 25h73m-73 25h73m-73 26h67m-67 26h69m-69 27h70m-70 25h66" stroke="#6c6c5e" stroke-width="8" stroke-linecap="round"/><path d="M275 177l59 3m-59 76 61-6m-61 54 55 0" stroke="#9b4e43" stroke-width="7" opacity=".8"/><path d="M140 131h230v263H140z" filter="url(#grain)" opacity=".48"/></g><rect width="512" height="512" filter="url(#grain)" opacity=".13"/></svg>
