<svg xmlns="http://www.w3.org/2000/svg" width="1024" height="1024" viewBox="0 0 512 512"><defs><radialGradient id="bg"><stop stop-color="#282b2c"/><stop offset="1" stop-color="#0d1012"/></radialGradient><linearGradient id="paper" x1="0" y1="0" x2="1" y2="1"><stop stop-color="#e9e2c6"/><stop offset=".55" stop-color="#c5b990"/><stop offset="1" stop-color="#776e55"/></linearGradient><filter id="blur"><feGaussianBlur stdDeviation="15"/></filter><filter id="grain"><feTurbulence type="fractalNoise" baseFrequency=".55" numOctaves="3" seed="58"/><feColorMatrix type="saturate" values="0"/><feComponentTransfer><feFuncA type="linear" slope=".18"/></feComponentTransfer></filter></defs><rect width="512" height="512" fill="url(#bg)"/><ellipse cx="257" cy="429" rx="178" ry="28" fill="#000" opacity=".62" filter="url(#blur)"/><desc>ASHFALL inventory art item_document_vandalized_propaganda; fictional marks with no readable text.</desc><g transform="rotate(-7 256 260)"><path d="M114 97h277l-15 310-271-13Z" fill="#b9ae89" stroke="#5c5347" stroke-width="9"/><path d="M134 118h239v245H129z" fill="#72534c"/><circle cx="251" cy="201" r="78" fill="#c9ae77" opacity=".8"/><path d="M177 266l73-122 75 122Z" fill="#4e5d5d" stroke="#e4d7ac" stroke-width="7"/><path d="M151 315h200m-195 22h151" stroke="#e5d7b7" stroke-width="14" opacity=".65"/><path d="M111 204q152 37 281 12M151 138q69 119 193 213" stroke="#923d3a" stroke-width="24" stroke-linecap="round" opacity=".9"/><path d="M142 355q138-98 222-151" stroke="#313a3a" stroke-width="12" stroke-dasharray="29 13"/><path d="M114 97h277l-15 310-271-13Z" filter="url(#grain)" opacity=".55"/></g><rect width="512" height="512" filter="url(#grain)" opacity=".13"/></svg>
